<?xml version="1.0" encoding="utf-8"?>
<!-- Generator: Adobe Illustrator 16.0.0, SVG Export Plug-In . SVG Version: 6.00 Build 0)  -->
<!DOCTYPE svg PUBLIC "-//W3C//DTD SVG 1.1//EN" "http://www.w3.org/Graphics/SVG/1.1/DTD/svg11.dtd">
<svg version="1.1" id="Layer_1" xmlns="http://www.w3.org/2000/svg" xmlns:xlink="http://www.w3.org/1999/xlink" x="0px" y="0px"
	 width="470px" height="316px" viewBox="0 0 470 316" enable-background="new 0 0 470 316" xml:space="preserve">
<g>
	<path fill="#8B5E3C" d="M295.276,299.436l30.294-4.447c0,0-4.545-20.812-23.83-53.719c-15.147-25.85-29.081-33.117-29.081-33.117
		h-12.926c0,0,14.965,23.406,20.6,38.773C286.998,265.1,295.276,299.436,295.276,299.436z"/>
	<path fill="#8B5E3C" d="M356.671,292.16l23.428-4.846c0,0-19.549-33.758-34.738-49.275c-18.779-19.186-40.793-29.887-40.793-29.887
		h-11.916c0,0,22.216,14.941,36.957,34.33C352.358,272.402,356.671,292.16,356.671,292.16z"/>
	<path fill="#8B5E3C" d="M401.908,282.871l17.773-5.25c0,0-11.917-19.59-41.603-44.023c-26.694-21.975-48.063-25.445-48.063-25.445
		h-10.907c0,0,27.375,10.391,43.623,27.059C386.358,259.445,401.908,282.871,401.908,282.871z"/>
	<path fill="#8B5E3C" d="M437.754,274.693l13.632-5.15c0,0-21.002-22.418-44.834-38.773c-27.976-19.199-52.71-22.617-52.71-22.617
		h-8.784c0,0,30.082,8.361,53.163,26.857C426.95,258.031,437.754,274.693,437.754,274.693z"/>
	<path fill="#8B5E3C" d="M235.5,216.627c0,0-4.246-0.773-9.491,4.549c-7.069,7.168-9.944,16.732-11.511,25.75
		c-3.232,18.576-4.039,52.51-4.039,52.51H235.5h25.04c0,0-0.807-33.932-4.037-52.51c-1.568-9.016-4.443-18.58-11.512-25.75
		C239.744,215.854,235.5,216.629,235.5,216.627z"/>
	<path fill="#8B5E3C" d="M175.723,299.436l-30.293-4.447c0,0,4.545-20.812,23.83-53.719c15.147-25.85,29.08-33.119,29.08-33.119
		h12.926c0,0-14.964,23.408-20.599,38.775C184.002,265.1,175.723,299.436,175.723,299.436z"/>
	<path fill="#8B5E3C" d="M114.329,292.158l-23.427-4.846c0,0,19.548-33.758,34.737-49.275
		c18.781-19.186,40.793-29.887,40.793-29.887h11.916c0,0-22.215,14.943-36.957,34.33
		C118.641,272.398,114.329,292.158,114.329,292.158z"/>
	<path fill="#8B5E3C" d="M69.091,282.871l-17.773-5.252c0,0,11.918-19.588,41.603-44.021c26.695-21.977,48.063-25.447,48.063-25.447
		h10.907c0,0-27.374,10.393-43.623,27.061C84.642,259.443,69.091,282.871,69.091,282.871z"/>
	<path fill="#8B5E3C" d="M33.246,274.693l-13.632-5.15c0,0,21.001-22.42,44.833-38.775c27.977-19.199,52.709-22.617,52.709-22.617
		h8.785c0,0-30.082,8.361-53.164,26.859C44.05,258.031,33.246,274.693,33.246,274.693z"/>
</g>
<g>
	
		<line fill="none" stroke="#231F20" stroke-width="1.8954" stroke-miterlimit="10" x1="285.483" y1="191.203" x2="285.483" y2="207.279"/>
	
		<line fill="none" stroke="#231F20" stroke-width="1.8954" stroke-miterlimit="10" x1="300.521" y1="191.203" x2="300.521" y2="207.279"/>
	
		<line fill="none" stroke="#231F20" stroke-width="1.8954" stroke-miterlimit="10" x1="315.557" y1="191.203" x2="315.557" y2="207.279"/>
	
		<line fill="none" stroke="#231F20" stroke-width="1.8954" stroke-miterlimit="10" x1="330.598" y1="191.203" x2="330.598" y2="207.279"/>
	
		<line fill="none" stroke="#231F20" stroke-width="1.8954" stroke-miterlimit="10" x1="345.633" y1="191.203" x2="345.633" y2="207.279"/>
	
		<line fill="none" stroke="#231F20" stroke-width="1.8954" stroke-miterlimit="10" x1="360.67" y1="191.203" x2="360.67" y2="207.279"/>
	
		<line fill="none" stroke="#231F20" stroke-width="3.159" stroke-miterlimit="10" x1="285.483" y1="203.576" x2="285.483" y2="210.408"/>
	
		<line fill="none" stroke="#231F20" stroke-width="3.159" stroke-miterlimit="10" x1="300.521" y1="203.576" x2="300.521" y2="210.408"/>
	
		<line fill="none" stroke="#231F20" stroke-width="3.159" stroke-miterlimit="10" x1="315.557" y1="203.576" x2="315.557" y2="210.408"/>
	
		<line fill="none" stroke="#231F20" stroke-width="3.159" stroke-miterlimit="10" x1="330.598" y1="203.576" x2="330.598" y2="210.408"/>
	
		<line fill="none" stroke="#231F20" stroke-width="3.159" stroke-miterlimit="10" x1="345.633" y1="203.576" x2="345.633" y2="210.408"/>
	
		<line fill="none" stroke="#231F20" stroke-width="3.159" stroke-miterlimit="10" x1="360.67" y1="203.576" x2="360.67" y2="210.408"/>
	
		<line fill="none" stroke="#009444" stroke-width="3.969" stroke-linecap="round" stroke-miterlimit="10" x1="240.805" y1="191.203" x2="369.117" y2="191.203"/>
	<polyline fill="none" stroke="#009444" stroke-width="3.159" stroke-linejoin="round" stroke-miterlimit="10" points="
		337.121,109.985 283.085,167.41 349.535,147.526 369.656,191.516 	"/>
	
		<line fill="none" stroke="#231F20" stroke-width="3.159" stroke-miterlimit="10" x1="343.606" y1="115.789" x2="330.255" y2="104.182"/>
	
		<line fill="none" stroke="#009444" stroke-width="3.159" stroke-miterlimit="10" x1="295.203" y1="163.785" x2="295.203" y2="191.203"/>
</g>
<rect x="200.21" y="153.667" fill="#FFF200" width="70.58" height="35.335"/>
<rect x="218.916" y="165.949" fill="#A7A9AC" width="33.168" height="11.594"/>
<path fill="#231F20" d="M242.805,174.98c0,4.035-3.271,7.305-7.305,7.305l0,0c-4.035,0-7.307-3.27-7.307-7.305v-9.09
	c0-4.033,3.271-7.305,7.307-7.305l0,0c4.034,0,7.305,3.271,7.305,7.305V174.98z"/>
<circle fill="#231F20" cx="235.5" cy="152.361" r="5.528"/>
<rect x="248.727" y="184.648" fill="#009444" width="17.771" height="8.82"/>
<rect x="252.084" y="142.791" fill="#009444" width="3.948" height="43.833"/>
<rect x="212.202" y="134.651" fill="#009444" width="46.595" height="8.095"/>
<rect x="252.084" y="204.328" fill="#009444" width="17.77" height="8.818"/>
<path fill="#FFFFFF" d="M252.448,186.35"/>
<path fill="#FFFFFF" d="M252.448,205.443"/>
<rect x="204.502" y="184.602" fill="#009444" width="17.77" height="8.82"/>
<rect x="218.916" y="177.543" fill="#009444" width="33.168" height="48.24"/>
<rect x="214.967" y="142.746" fill="#009444" width="3.949" height="43.831"/>
<g>
	
		<line fill="none" stroke="#231F20" stroke-width="1.8954" stroke-miterlimit="10" x1="185.237" y1="191.203" x2="185.237" y2="207.279"/>
	
		<line fill="none" stroke="#231F20" stroke-width="1.8954" stroke-miterlimit="10" x1="170.2" y1="191.203" x2="170.2" y2="207.279"/>
	
		<line fill="none" stroke="#231F20" stroke-width="1.8954" stroke-miterlimit="10" x1="155.164" y1="191.203" x2="155.164" y2="207.279"/>
	
		<line fill="none" stroke="#231F20" stroke-width="1.8954" stroke-miterlimit="10" x1="140.124" y1="191.203" x2="140.124" y2="207.279"/>
	
		<line fill="none" stroke="#231F20" stroke-width="1.8954" stroke-miterlimit="10" x1="125.087" y1="191.203" x2="125.087" y2="207.279"/>
	
		<line fill="none" stroke="#231F20" stroke-width="1.8954" stroke-miterlimit="10" x1="110.051" y1="191.203" x2="110.051" y2="207.279"/>
	
		<line fill="none" stroke="#231F20" stroke-width="3.159" stroke-miterlimit="10" x1="185.237" y1="203.576" x2="185.237" y2="210.408"/>
	
		<line fill="none" stroke="#231F20" stroke-width="3.159" stroke-miterlimit="10" x1="170.2" y1="203.576" x2="170.2" y2="210.408"/>
	
		<line fill="none" stroke="#231F20" stroke-width="3.159" stroke-miterlimit="10" x1="155.164" y1="203.576" x2="155.164" y2="210.408"/>
	
		<line fill="none" stroke="#231F20" stroke-width="3.159" stroke-miterlimit="10" x1="140.124" y1="203.576" x2="140.124" y2="210.408"/>
	
		<line fill="none" stroke="#231F20" stroke-width="3.159" stroke-miterlimit="10" x1="125.087" y1="203.576" x2="125.087" y2="210.408"/>
	
		<line fill="none" stroke="#231F20" stroke-width="3.159" stroke-miterlimit="10" x1="110.051" y1="203.576" x2="110.051" y2="210.408"/>
	
		<line fill="none" stroke="#009444" stroke-width="3.969" stroke-linecap="round" stroke-miterlimit="10" x1="229.916" y1="191.203" x2="101.604" y2="191.203"/>
	<polyline fill="none" stroke="#009444" stroke-width="3.159" stroke-linejoin="round" stroke-miterlimit="10" points="
		133.6,109.985 187.636,167.41 121.186,147.526 101.064,191.516 	"/>
	
		<line fill="none" stroke="#231F20" stroke-width="3.159" stroke-miterlimit="10" x1="127.114" y1="115.789" x2="140.466" y2="104.182"/>
	
		<line fill="none" stroke="#009444" stroke-width="3.159" stroke-miterlimit="10" x1="175.518" y1="163.785" x2="175.518" y2="191.203"/>
</g>
<rect x="201.145" y="204.279" fill="#009444" width="17.771" height="8.82"/>
<g>
	<path fill="#231F20" stroke="#6D6E71" stroke-width="1.5795" stroke-miterlimit="10" d="M278.504,205.779
		c0,4.471-3.625,8.096-8.095,8.096l0,0c-4.471,0-8.096-3.625-8.096-8.096v-31.984c0-4.471,3.625-8.096,8.096-8.096l0,0
		c4.47,0,8.095,3.625,8.095,8.096V205.779z"/>
	
		<line fill="none" stroke="#6D6E71" stroke-width="2.2" stroke-linecap="round" stroke-linejoin="round" stroke-miterlimit="10" x1="278.065" y1="174.52" x2="270.411" y2="178.443"/>
	
		<line fill="none" stroke="#6D6E71" stroke-width="2.2" stroke-linecap="round" stroke-linejoin="round" stroke-miterlimit="10" x1="278.065" y1="181.713" x2="270.411" y2="185.637"/>
	
		<line fill="none" stroke="#6D6E71" stroke-width="2.2" stroke-linecap="round" stroke-linejoin="round" stroke-miterlimit="10" x1="278.065" y1="188.381" x2="270.411" y2="192.305"/>
	
		<line fill="none" stroke="#6D6E71" stroke-width="2.2" stroke-linecap="round" stroke-linejoin="round" stroke-miterlimit="10" x1="278.065" y1="195.426" x2="270.411" y2="199.35"/>
	
		<line fill="none" stroke="#6D6E71" stroke-width="2.2" stroke-linecap="round" stroke-linejoin="round" stroke-miterlimit="10" x1="278.065" y1="202.414" x2="270.411" y2="206.338"/>
	
		<line fill="none" stroke="#6D6E71" stroke-width="2.2" stroke-linecap="round" stroke-linejoin="round" stroke-miterlimit="10" x1="262.754" y1="177.982" x2="270.409" y2="181.906"/>
	
		<line fill="none" stroke="#6D6E71" stroke-width="2.2" stroke-linecap="round" stroke-linejoin="round" stroke-miterlimit="10" x1="262.754" y1="185.176" x2="270.409" y2="189.1"/>
	
		<line fill="none" stroke="#6D6E71" stroke-width="2.2" stroke-linecap="round" stroke-linejoin="round" stroke-miterlimit="10" x1="262.754" y1="191.846" x2="270.409" y2="195.77"/>
	
		<line fill="none" stroke="#6D6E71" stroke-width="2.2" stroke-linecap="round" stroke-linejoin="round" stroke-miterlimit="10" x1="262.754" y1="198.891" x2="270.409" y2="202.814"/>
	
		<line fill="none" stroke="#6D6E71" stroke-width="2.2" stroke-linecap="round" stroke-linejoin="round" stroke-miterlimit="10" x1="263.21" y1="170.885" x2="270.409" y2="174.574"/>
	
		<line fill="none" stroke="#6D6E71" stroke-width="2.2" stroke-linecap="round" stroke-linejoin="round" stroke-miterlimit="10" x1="262.754" y1="205.906" x2="270.409" y2="209.83"/>
</g>
<g>
	<path fill="#231F20" stroke="#6D6E71" stroke-width="1.5795" stroke-miterlimit="10" d="M192.496,206.029
		c0,4.471,3.625,8.096,8.095,8.096l0,0c4.471,0,8.096-3.625,8.096-8.096v-31.984c0-4.471-3.625-8.096-8.096-8.096l0,0
		c-4.47,0-8.095,3.625-8.095,8.096V206.029z"/>
	
		<line fill="none" stroke="#6D6E71" stroke-width="2.2" stroke-linecap="round" stroke-linejoin="round" stroke-miterlimit="10" x1="192.935" y1="174.77" x2="200.589" y2="178.693"/>
	
		<line fill="none" stroke="#6D6E71" stroke-width="2.2" stroke-linecap="round" stroke-linejoin="round" stroke-miterlimit="10" x1="192.935" y1="181.963" x2="200.589" y2="185.887"/>
	
		<line fill="none" stroke="#6D6E71" stroke-width="2.2" stroke-linecap="round" stroke-linejoin="round" stroke-miterlimit="10" x1="192.935" y1="188.631" x2="200.589" y2="192.555"/>
	
		<line fill="none" stroke="#6D6E71" stroke-width="2.2" stroke-linecap="round" stroke-linejoin="round" stroke-miterlimit="10" x1="192.935" y1="195.676" x2="200.589" y2="199.6"/>
	
		<line fill="none" stroke="#6D6E71" stroke-width="2.2" stroke-linecap="round" stroke-linejoin="round" stroke-miterlimit="10" x1="192.935" y1="202.664" x2="200.589" y2="206.588"/>
	
		<line fill="none" stroke="#6D6E71" stroke-width="2.2" stroke-linecap="round" stroke-linejoin="round" stroke-miterlimit="10" x1="208.246" y1="178.232" x2="200.591" y2="182.156"/>
	
		<line fill="none" stroke="#6D6E71" stroke-width="2.2" stroke-linecap="round" stroke-linejoin="round" stroke-miterlimit="10" x1="208.246" y1="185.426" x2="200.591" y2="189.35"/>
	
		<line fill="none" stroke="#6D6E71" stroke-width="2.2" stroke-linecap="round" stroke-linejoin="round" stroke-miterlimit="10" x1="208.246" y1="192.096" x2="200.591" y2="196.02"/>
	
		<line fill="none" stroke="#6D6E71" stroke-width="2.2" stroke-linecap="round" stroke-linejoin="round" stroke-miterlimit="10" x1="208.246" y1="199.141" x2="200.591" y2="203.064"/>
	
		<line fill="none" stroke="#6D6E71" stroke-width="2.2" stroke-linecap="round" stroke-linejoin="round" stroke-miterlimit="10" x1="207.79" y1="171.135" x2="200.591" y2="174.824"/>
	
		<line fill="none" stroke="#6D6E71" stroke-width="2.2" stroke-linecap="round" stroke-linejoin="round" stroke-miterlimit="10" x1="208.246" y1="206.156" x2="200.591" y2="210.08"/>
</g>
<rect x="259.772" y="204.328" fill="#FFF200" width="15.794" height="8.818"/>
<rect x="195.432" y="204.279" fill="#FFF200" width="15.796" height="8.82"/>
<path fill="#FFFFFF" d="M218.551,186.305"/>
<path fill="#FFFFFF" d="M218.551,205.398"/>
<g>
	<g>
		<path fill="#231F20" d="M70.236,31.29c10.502-1.328,21.02-2.53,31.55-3.609c0.298,2.913,0.446,4.37,0.745,7.283
			c-8.348,0.855-12.519,1.316-20.856,2.302c0.774,6.544,1.162,9.816,1.936,16.36c7.175-0.849,10.764-1.249,17.947-1.999
			c0.304,2.913,0.458,4.369,0.762,7.281c-7.144,0.747-10.714,1.144-17.85,1.988c1.089,9.21,1.634,13.817,2.724,23.027
			c-4.062,0.48-6.092,0.728-10.151,1.241C74.774,67.206,72.505,49.248,70.236,31.29z"/>
		<path fill="#231F20" d="M106.771,27.179c4.24-0.418,6.36-0.62,10.603-1.004c0.281,3.099,0.42,4.648,0.702,7.747
			c-4.217,0.383-6.326,0.583-10.541,0.999C107.229,31.824,107.077,30.276,106.771,27.179z M108.308,42.738
			c4.19-0.414,6.286-0.613,10.479-0.993c1.165,12.837,2.329,25.674,3.494,38.511c-4.071,0.369-6.106,0.562-10.175,0.964
			C110.839,68.393,109.574,55.565,108.308,42.738z"/>
		<path fill="#231F20" d="M138.691,62.425c0.162,2.099,0.243,3.147,0.404,5.246c0.094,1.216,0.619,2.121,1.573,2.711
			s2.199,0.828,3.742,0.715c1.941-0.142,3.2-0.661,3.778-1.57c0.576-0.906,0.901-1.794,0.978-2.668
			c4.112-0.284,6.167-0.417,10.28-0.669c0.1,1.625-0.161,3.17-0.775,4.633c-0.616,1.465-1.586,2.746-2.828,3.847
			c-1.267,1.124-2.812,2.093-4.636,2.829c-1.825,0.737-3.9,1.188-6.229,1.358c-3.13,0.229-5.864-0.073-8.208-0.907
			c-2.345-0.834-4.189-2.038-5.531-3.604c-0.816-0.952-1.422-2.074-1.801-3.37c-0.379-1.294-0.636-2.729-0.77-4.299
			c-0.431-5.077-0.646-7.614-1.077-12.69c-0.133-1.569-0.119-3.024,0.041-4.365c0.161-1.339,0.579-2.55,1.242-3.626
			c1.091-1.769,2.758-3.263,5.007-4.462c2.247-1.198,4.987-1.92,8.214-2.155c2.4-0.175,4.6-0.025,6.597,0.451
			c1.995,0.476,3.699,1.22,5.104,2.225c1.404,1.005,2.51,2.222,3.318,3.648c0.808,1.427,1.262,2.978,1.365,4.652
			c0.261,4.263,0.391,6.396,0.652,10.658C150.952,61.514,146.863,61.796,138.691,62.425z M138.224,56.341
			c4.064-0.312,6.098-0.46,10.164-0.741c-0.122-1.765-0.184-2.648-0.306-4.413c-0.102-1.471-0.637-2.542-1.609-3.213
			c-0.972-0.67-2.243-0.951-3.812-0.836c-1.571,0.115-2.786,0.577-3.65,1.381c-0.864,0.805-1.239,1.944-1.126,3.414
			C138.021,53.696,138.088,54.577,138.224,56.341z"/>
		<path fill="#231F20" d="M164,22.76c4.25-0.237,6.375-0.349,10.627-0.552c0.693,14.449,1.385,28.898,2.079,43.347
			c0.071,1.473,0.469,2.458,1.198,2.958c0.73,0.5,2.071,0.781,4.022,0.848c0.129,2.926,0.193,4.389,0.322,7.315
			c-2.333,0.103-4.457,0.061-6.369-0.124c-1.914-0.185-3.542-0.638-4.885-1.356c-1.343-0.718-2.404-1.768-3.185-3.151
			c-0.78-1.382-1.233-3.188-1.358-5.423C165.634,52.001,164.816,37.38,164,22.76z"/>
		<path fill="#231F20" d="M206.449,71.87c-0.655,0.577-1.278,1.114-1.867,1.612c-0.589,0.5-1.244,0.937-1.967,1.312
			c-0.725,0.376-1.552,0.683-2.479,0.913c-0.928,0.231-2.026,0.367-3.292,0.408c-4.2,0.138-7.233-0.969-9.044-3.335
			c-0.636-0.831-1.113-1.891-1.433-3.149c-0.32-1.259-0.523-2.956-0.611-5.09c-0.241-5.882-0.361-8.825-0.603-14.707
			c-0.114-2.793-0.097-4.855,0.054-6.184c0.151-1.329,0.552-2.43,1.206-3.255c0.831-1.048,1.965-1.934,3.35-2.647
			c1.382-0.712,3.347-1.114,5.891-1.197c2.061-0.067,3.909,0.22,5.543,0.86c1.631,0.64,3.049,1.583,4.247,2.823
			c0.083-0.002,0.123-0.003,0.206-0.005c-0.193-7.655-0.291-11.482-0.484-19.137c4.254-0.107,6.382-0.153,10.637-0.227
			c0.312,18.098,0.628,36.197,0.941,54.295c-4.083,0.071-6.125,0.115-10.208,0.218C206.501,73.974,206.484,73.272,206.449,71.87z
			 M196.014,63.094c0.052,1.575,0.499,2.833,1.335,3.771c0.838,0.939,2.125,1.381,3.871,1.33c1.542-0.045,2.771-0.522,3.688-1.436
			c0.916-0.913,1.359-2.083,1.323-3.506c-0.152-6.008-0.227-9.014-0.379-15.021c-0.031-1.22-0.552-2.209-1.562-2.972
			c-1.011-0.762-2.27-1.122-3.771-1.078c-1.983,0.058-3.317,0.56-4.003,1.498c-0.688,0.938-1.01,2.017-0.97,3.236
			C195.734,54.586,195.826,57.422,196.014,63.094z"/>
		<path fill="#231F20" d="M286.697,75.838c-3.842-0.141-5.764-0.205-9.606-0.317c-2.257-11.824-4.59-23.634-6.984-35.431
			c-0.082-0.002-0.123-0.004-0.205-0.006c-2.914,11.672-5.747,23.365-8.521,35.072c-3.844-0.066-5.765-0.092-9.608-0.129
			c-3.397-18.144-6.904-36.263-10.525-54.363c4.506,0.007,6.758,0.02,11.263,0.064c1.645,11.507,3.259,23.018,4.842,34.533
			c0.081,0.001,0.122,0.001,0.203,0.002c2.876-11.459,5.812-22.902,8.825-34.326c3.254,0.066,4.88,0.104,8.133,0.189
			c2.574,11.833,5.074,23.683,7.503,35.547c0.081,0.002,0.121,0.004,0.202,0.007c2.046-11.712,4.128-23.419,6.266-35.115
			c4.503,0.165,6.755,0.257,11.257,0.459C295.274,39.935,290.932,57.872,286.697,75.838z"/>
		<path fill="#231F20" d="M301.613,50.741c0.074-1.573,0.28-3.015,0.615-4.324c0.335-1.307,0.906-2.449,1.705-3.429
			c1.313-1.61,3.163-2.874,5.549-3.766c2.384-0.892,5.196-1.247,8.425-1.056c3.226,0.191,5.976,0.875,8.239,2.042
			c2.263,1.167,3.953,2.637,5.068,4.394c0.678,1.067,1.108,2.272,1.288,3.608c0.18,1.338,0.214,2.793,0.103,4.364
			c-0.36,5.082-0.541,7.623-0.901,12.705c-0.111,1.572-0.351,3.009-0.711,4.308c-0.362,1.301-0.946,2.431-1.749,3.395
			c-1.321,1.587-3.152,2.815-5.483,3.681c-2.333,0.867-5.061,1.204-8.19,1.019c-3.133-0.186-5.801-0.844-8.014-1.979
			c-2.213-1.135-3.883-2.573-5.007-4.301c-0.684-1.051-1.135-2.244-1.34-3.578c-0.205-1.333-0.272-2.787-0.198-4.361
			C301.253,58.375,301.372,55.83,301.613,50.741z M311.246,65.21c-0.081,1.473,0.311,2.603,1.175,3.39
			c0.864,0.788,2.065,1.224,3.608,1.315c1.541,0.091,2.785-0.201,3.736-0.881c0.951-0.679,1.472-1.754,1.564-3.226
			c0.382-6.059,0.574-9.088,0.956-15.146c0.093-1.471-0.297-2.604-1.172-3.397c-0.875-0.792-2.096-1.239-3.665-1.332
			c-1.572-0.093-2.84,0.206-3.802,0.89c-0.962,0.685-1.482,1.763-1.563,3.235C311.749,56.118,311.581,59.148,311.246,65.21z"/>
		<path fill="#231F20" d="M341.236,40.213c4.196,0.322,6.294,0.492,10.488,0.848c-0.14,1.641-0.209,2.462-0.348,4.104
			c2.238-1.238,4.426-2.173,6.552-2.799c2.125-0.625,4.7-0.799,7.716-0.511c-0.312,3.28-0.469,4.92-0.781,8.2
			c-0.993-0.401-2.036-0.654-3.125-0.755c-1.091-0.102-2.279-0.068-3.563,0.097c-1.286,0.165-2.487,0.53-3.599,1.096
			c-1.113,0.566-2.055,1.355-2.824,2.36s-1.22,2.294-1.353,3.865c-0.775,9.149-1.161,13.724-1.937,22.874
			c-4.072-0.345-6.113-0.509-10.188-0.822C339.263,65.916,340.246,53.064,341.236,40.213z"/>
		<path fill="#231F20" d="M371.348,27.158c4.24,0.418,6.358,0.635,10.596,1.087c-1.15,10.769-2.297,21.537-3.442,32.306
			c0.081,0.009,0.121,0.013,0.202,0.022c5.701-6.172,8.582-9.242,14.407-15.352c4.185,0.487,6.273,0.739,10.455,1.259
			c-5.736,5.619-8.572,8.443-14.195,14.124c4.872,9.802,7.256,14.716,11.917,24.561c-4.418-0.558-6.628-0.827-11.049-1.347
			c-2.885-7.066-4.353-10.598-7.334-17.648c-2.236,2.117-3.35,3.177-5.568,5.303c-0.459,4.308-0.688,6.464-1.146,10.771
			c-4.066-0.433-6.098-0.642-10.167-1.043C367.794,63.186,369.57,45.172,371.348,27.158z"/>
	</g>
</g>
<rect x="218.916" y="186.305" width="33.168" height="23.426"/>
<g>
	<path fill="#231F20" stroke="#6D6E71" stroke-width="1.5795" stroke-miterlimit="10" d="M198.776,224.682
		c0,4.471,3.625,8.096,8.095,8.096l0,0c4.47,0,8.096-3.625,8.096-8.096v-31.984c0-4.471-3.625-8.096-8.096-8.096l0,0
		c-4.47,0-8.095,3.625-8.095,8.096V224.682z"/>
	
		<line fill="none" stroke="#6D6E71" stroke-width="2.2" stroke-linecap="round" stroke-linejoin="round" stroke-miterlimit="10" x1="199.215" y1="193.422" x2="206.87" y2="197.346"/>
	
		<line fill="none" stroke="#6D6E71" stroke-width="2.2" stroke-linecap="round" stroke-linejoin="round" stroke-miterlimit="10" x1="199.215" y1="200.615" x2="206.87" y2="204.539"/>
	
		<line fill="none" stroke="#6D6E71" stroke-width="2.2" stroke-linecap="round" stroke-linejoin="round" stroke-miterlimit="10" x1="199.215" y1="207.284" x2="206.87" y2="211.208"/>
	
		<line fill="none" stroke="#6D6E71" stroke-width="2.2" stroke-linecap="round" stroke-linejoin="round" stroke-miterlimit="10" x1="199.215" y1="214.329" x2="206.87" y2="218.253"/>
	
		<line fill="none" stroke="#6D6E71" stroke-width="2.2" stroke-linecap="round" stroke-linejoin="round" stroke-miterlimit="10" x1="199.215" y1="221.317" x2="206.87" y2="225.241"/>
	
		<line fill="none" stroke="#6D6E71" stroke-width="2.2" stroke-linecap="round" stroke-linejoin="round" stroke-miterlimit="10" x1="214.526" y1="196.886" x2="206.872" y2="200.81"/>
	
		<line fill="none" stroke="#6D6E71" stroke-width="2.2" stroke-linecap="round" stroke-linejoin="round" stroke-miterlimit="10" x1="214.526" y1="204.079" x2="206.872" y2="208.003"/>
	
		<line fill="none" stroke="#6D6E71" stroke-width="2.2" stroke-linecap="round" stroke-linejoin="round" stroke-miterlimit="10" x1="214.526" y1="210.748" x2="206.872" y2="214.672"/>
	
		<line fill="none" stroke="#6D6E71" stroke-width="2.2" stroke-linecap="round" stroke-linejoin="round" stroke-miterlimit="10" x1="214.526" y1="217.793" x2="206.872" y2="221.717"/>
	
		<line fill="none" stroke="#6D6E71" stroke-width="2.2" stroke-linecap="round" stroke-linejoin="round" stroke-miterlimit="10" x1="214.071" y1="189.787" x2="206.872" y2="193.478"/>
	
		<line fill="none" stroke="#6D6E71" stroke-width="2.2" stroke-linecap="round" stroke-linejoin="round" stroke-miterlimit="10" x1="214.526" y1="224.809" x2="206.872" y2="228.732"/>
</g>
<g>
	<path fill="#231F20" stroke="#6D6E71" stroke-width="1.5795" stroke-miterlimit="10" d="M272.222,224.729
		c0,4.471-3.625,8.096-8.095,8.096l0,0c-4.471,0-8.096-3.625-8.096-8.096v-31.984c0-4.471,3.625-8.096,8.096-8.096l0,0
		c4.47,0,8.095,3.625,8.095,8.096V224.729z"/>
	
		<line fill="none" stroke="#6D6E71" stroke-width="2.2" stroke-linecap="round" stroke-linejoin="round" stroke-miterlimit="10" x1="271.783" y1="193.47" x2="264.129" y2="197.394"/>
	
		<line fill="none" stroke="#6D6E71" stroke-width="2.2" stroke-linecap="round" stroke-linejoin="round" stroke-miterlimit="10" x1="271.783" y1="200.663" x2="264.129" y2="204.587"/>
	
		<line fill="none" stroke="#6D6E71" stroke-width="2.2" stroke-linecap="round" stroke-linejoin="round" stroke-miterlimit="10" x1="271.783" y1="207.332" x2="264.129" y2="211.256"/>
	
		<line fill="none" stroke="#6D6E71" stroke-width="2.2" stroke-linecap="round" stroke-linejoin="round" stroke-miterlimit="10" x1="271.783" y1="214.377" x2="264.129" y2="218.301"/>
	
		<line fill="none" stroke="#6D6E71" stroke-width="2.2" stroke-linecap="round" stroke-linejoin="round" stroke-miterlimit="10" x1="271.783" y1="221.365" x2="264.129" y2="225.289"/>
	
		<line fill="none" stroke="#6D6E71" stroke-width="2.2" stroke-linecap="round" stroke-linejoin="round" stroke-miterlimit="10" x1="256.472" y1="196.934" x2="264.127" y2="200.857"/>
	
		<line fill="none" stroke="#6D6E71" stroke-width="2.2" stroke-linecap="round" stroke-linejoin="round" stroke-miterlimit="10" x1="256.472" y1="204.127" x2="264.127" y2="208.051"/>
	
		<line fill="none" stroke="#6D6E71" stroke-width="2.2" stroke-linecap="round" stroke-linejoin="round" stroke-miterlimit="10" x1="256.472" y1="210.796" x2="264.127" y2="214.72"/>
	
		<line fill="none" stroke="#6D6E71" stroke-width="2.2" stroke-linecap="round" stroke-linejoin="round" stroke-miterlimit="10" x1="256.472" y1="217.841" x2="264.127" y2="221.765"/>
	
		<line fill="none" stroke="#6D6E71" stroke-width="2.2" stroke-linecap="round" stroke-linejoin="round" stroke-miterlimit="10" x1="256.928" y1="189.835" x2="264.127" y2="193.525"/>
	
		<line fill="none" stroke="#6D6E71" stroke-width="2.2" stroke-linecap="round" stroke-linejoin="round" stroke-miterlimit="10" x1="256.472" y1="224.856" x2="264.127" y2="228.78"/>
</g>
</svg>
