<?xml version="1.0" encoding="utf-8"?>
<!-- Generator: Adobe Illustrator 16.0.0, SVG Export Plug-In . SVG Version: 6.00 Build 0)  -->
<!DOCTYPE svg PUBLIC "-//W3C//DTD SVG 1.1//EN" "http://www.w3.org/Graphics/SVG/1.1/DTD/svg11.dtd">
<svg version="1.1" id="Capa_1" xmlns="http://www.w3.org/2000/svg" xmlns:xlink="http://www.w3.org/1999/xlink" x="0px" y="0px"
	 width="505.5px" height="112.5px" viewBox="185.5 -6.5 505.5 112.5" enable-background="new 185.5 -6.5 505.5 112.5"
	 xml:space="preserve">
<path display="none" fill="#5B2727" d="M687.25,90.659c0,7.092-5.443,12.841-12.158,12.841H200.409
	c-6.716,0-12.159-5.749-12.159-12.841V9.341c0-7.092,5.442-12.841,12.159-12.841h474.683c6.715,0,12.158,5.749,12.158,12.841V90.659
	z"/>
<path fill="#FFE17D" d="M248.639,2.122l-43.158,20.834c-0.541,0.261-0.885,0.809-0.885,1.41v51.267c0,0.602,0.344,1.148,0.885,1.41
	l43.158,20.835c0.86,0.415,1.862,0.415,2.723,0l43.158-20.835c0.541-0.261,0.885-0.809,0.885-1.41V24.367
	c0-0.601-0.344-1.149-0.885-1.41L251.361,2.122C250.501,1.707,249.499,1.707,248.639,2.122z"/>
<path fill="#FFC350" d="M204.856,23.509c-0.165,0.25-0.26,0.545-0.26,0.857v51.267c0,0.602,0.344,1.148,0.885,1.41l43.158,20.835
	c0.43,0.208,0.896,0.312,1.361,0.312V45.303L204.856,23.509z"/>
<path fill="#FFD164" d="M295.144,23.509c0.165,0.25,0.261,0.545,0.261,0.857v51.267c0,0.602-0.344,1.148-0.885,1.41l-43.158,20.835
	c-0.43,0.208-0.896,0.312-1.361,0.312V45.303L295.144,23.509z"/>
<polygon fill="#FF8087" points="279.846,30.87 234.543,8.984 222.601,14.772 268.005,36.692 "/>
<path fill="#E6646E" d="M268.005,36.692v16.98c0,0.578,0.604,0.957,1.123,0.705l9.832-4.746c0.542-0.261,0.886-0.809,0.886-1.41
	V30.87L268.005,36.692z"/>
<path d="M296.041,22.064L250.637,0.146c-0.402-0.194-0.871-0.194-1.273,0l-45.404,21.919c-0.506,0.244-0.828,0.757-0.828,1.319
	v53.231c0,0.562,0.322,1.075,0.828,1.32l45.404,21.918C249.564,99.951,249.782,100,250,100s0.436-0.049,0.637-0.146l45.404-21.918
	c0.506-0.245,0.828-0.758,0.828-1.32V23.384C296.869,22.821,296.547,22.309,296.041,22.064z M250,3.091l42.035,20.292l-12.186,5.882
	c-0.077-0.059-0.158-0.113-0.248-0.156L237.853,8.956L250,3.091z M234.544,10.612l41.973,20.263l-8.597,4.15L225.965,14.77
	L234.544,10.612z M269.47,37.53l8.03-3.876v15.341l-8.03,3.876V37.53z M251.465,96.201V46.222l10.131-4.891
	c0.729-0.352,1.035-1.227,0.683-1.956c-0.352-0.728-1.228-1.034-1.956-0.682L250,43.676l-4.062-1.961
	c-0.729-0.352-1.604-0.046-1.956,0.682c-0.352,0.729-0.046,1.604,0.682,1.956l3.871,1.869v49.979l-42.474-20.505V25.717
	l32.344,15.614c0.205,0.099,0.422,0.146,0.636,0.146c0.544,0,1.067-0.305,1.32-0.828c0.352-0.729,0.046-1.604-0.682-1.956
	l-31.713-15.31l14.552-7.025l44.002,21.243c0.007,0.009,0.014,0.017,0.021,0.026v17.578c0,0.504,0.259,0.973,0.687,1.241
	c0.236,0.148,0.508,0.224,0.779,0.224c0.217,0,0.435-0.048,0.637-0.146l10.959-5.291c0.506-0.244,0.828-0.757,0.828-1.319V32.24
	l13.51-6.522v49.979L251.465,96.201z"/>
<path d="M218.149,70.016l-6.663-3.217c-0.729-0.352-1.604-0.046-1.956,0.683c-0.352,0.729-0.046,1.604,0.683,1.956l6.663,3.217
	c0.205,0.099,0.422,0.146,0.636,0.146c0.544,0,1.067-0.305,1.32-0.828C219.184,71.243,218.878,70.367,218.149,70.016z"/>
<path d="M224.282,66.023l-12.786-6.172c-0.729-0.352-1.604-0.047-1.956,0.682c-0.352,0.729-0.046,1.604,0.683,1.957l12.786,6.172
	c0.205,0.1,0.422,0.146,0.636,0.146c0.544,0,1.067-0.305,1.32-0.828C225.316,67.252,225.01,66.375,224.282,66.023z"/>
<text transform="matrix(1 0 0 1 321.998 69.7266)" display="none" stroke="#000000" stroke-width="7" stroke-miterlimit="10" font-family="'Skia-Regular'" font-size="58.6416">Fake Food Co</text>
<text transform="matrix(1 0 0 1 321.998 69.7266)" fill="#56AD5A" font-family="'Skia-Regular'" font-size="58.6416">Fake Food Co</text>
</svg>
